<?xml version="1.0" encoding="utf-8"?>
<!-- Generator: Adobe Illustrator 25.0.0, SVG Export Plug-In . SVG Version: 6.00 Build 0)  -->
<svg version="1.1" id="Layer_1" xmlns="http://www.w3.org/2000/svg" xmlns:xlink="http://www.w3.org/1999/xlink" x="0px" y="0px"
	 viewBox="0 0 1065.2 406.4" style="enable-background:new 0 0 1065.2 406.4;" xml:space="preserve">
<style type="text/css">
	.st0{fill:url(#SVGID_1_);}
	.st1{fill:url(#SVGID_2_);}
	.st2{fill:url(#SVGID_3_);}
	.st3{fill:url(#SVGID_4_);}
	.st4{fill:none;}
	.st5{fill:#2B3990;}
	.st6{font-family:'Optima-BoldItalic';}
	.st7{font-size:282px;}
	.st8{letter-spacing:14;}
</style>
<g>
	<g>
		<linearGradient id="SVGID_1_" gradientUnits="userSpaceOnUse" x1="193.1456" y1="40.5832" x2="193.1456" y2="397.9144">
			<stop  offset="0" style="stop-color:#27DDE1"/>
			<stop  offset="1" style="stop-color:#2786E1"/>
		</linearGradient>
		<path class="st0" d="M211.2,45.5H47v233.3c0,55.9,45.3,101.2,101.2,101.2V279.6c54.7-40.6,65.6-88,54.1-107.2
			c-11.5-19.1-42.7-14.2-42.7-14.2s4.1-15.3,25.2-20.8c0,0,6.5-24.8,39.7-24.8c30.3,0,61,28.7,74,66.9c7.8,23.1,7.1,53.9-5.6,75.4
			c28.5-19.6,46.4-50.7,46.4-92.9v-1C339.3,92.8,291,45.5,211.2,45.5z"/>
		<linearGradient id="SVGID_2_" gradientUnits="userSpaceOnUse" x1="206.9772" y1="40.5793" x2="206.9772" y2="397.9283">
			<stop  offset="0" style="stop-color:#27DDE1"/>
			<stop  offset="1" style="stop-color:#2786E1"/>
		</linearGradient>
		<path class="st1" d="M207,127.1c-2.3,0-4.1,1.8-4.1,4.1c0,2.3,1.8,4.1,4.1,4.1c2.3,0,4.1-1.9,4.1-4.1
			C211.1,128.9,209.3,127.1,207,127.1z"/>
	</g>
	<linearGradient id="SVGID_3_" gradientUnits="userSpaceOnUse" x1="126.7105" y1="139.1633" x2="126.7105" y2="359.7253">
		<stop  offset="0" style="stop-color:#2786E1"/>
		<stop  offset="1" style="stop-color:#27DDE1"/>
	</linearGradient>
	<path class="st2" d="M148.2,379.9V279.6c54.7-40.6,65.6-88,54.1-107.2c-11.5-19.1-42.7-14.2-42.7-14.2c13,1.4,40,15.1,21.9,39.6
		C156.7,231.5,71,190.9,47,141.5c0,15.5,0,137.2,0,137.2C47,334.6,92.3,379.9,148.2,379.9z"/>
	<linearGradient id="SVGID_4_" gradientUnits="userSpaceOnUse" x1="275.2633" y1="45.4571" x2="275.2633" y2="254.9425">
		<stop  offset="0" style="stop-color:#27DDE1"/>
		<stop  offset="1" style="stop-color:#2786E1"/>
	</linearGradient>
	<path class="st3" d="M224.5,112.6c30.3,0,61,28.7,74,66.9c7.8,23.1,7.1,53.9-5.6,75.4c28.5-19.6,46.4-50.7,46.4-92.9v-1
		c0-68.3-48.3-115.6-128-115.6c0,0,82.5,15.8,99,73C326.8,175.8,291.6,112.6,224.5,112.6z"/>
</g>
<rect x="353.3" y="70.3" class="st4" width="1438.7" height="284.8"/>
<text transform="matrix(1 0 0 1 353.2863 282.0412)" class="st5 st6 st7 st8">yjion</text>
</svg>
